<?xml version="1.0" encoding="UTF-8"?>
<svg version="1.1" viewBox="0 0 323.84 430.91" xmlns="http://www.w3.org/2000/svg">
 <g transform="translate(-203.54 -259.34)">
  <g transform="translate(8.0812 44.447)">
   <path d="m357.84 217.19c-55.206 0.39191-110.58 31.601-109.65 92.473v166.05h48.931v-138.53c-3.0392-72.218 119.81-81.978 120.42 0v138.53h49.003v-166.05c1.5679-62.44-53.505-92.865-108.71-92.473z" fill="#cccccf" stroke="#000" stroke-width="4.5985"/>
   <path d="m225.63 409.8h263.5c15.441 0 27.871 12.431 27.871 27.871v119.47c0.85205 112.52-319.33 117.75-319.24 0v-119.47c0-15.441 12.431-27.871 27.871-27.871z" fill="#f0a513" stroke="#000" stroke-width="4.5985"/>
   <g transform="matrix(2.2993 0 0 2.2993 -395.73 -598.06)" fill="#333">
    <path transform="translate(-5.0472 -1.5152)" d="m341.94 475.82c0 5.1605-4.1834 9.3439-9.3439 9.3439s-9.3439-4.1834-9.3439-9.3439 4.1834-9.3439 9.3439-9.3439 9.3439 4.1834 9.3439 9.3439z"/>
    <path d="m319.48 477.84h15.559l5.3919 32.418-25.766 0.25253z"/>
   </g>
  </g>
 </g>
</svg>
